<svg xmlns="http://www.w3.org/2000/svg" xmlns:xlink="http://www.w3.org/1999/xlink" contentStyleType="text/css" data-diagram-type="CLASS" height="111px" preserveAspectRatio="none" style="width:164px;height:111px;background:#FFFFFF;" version="1.1" viewBox="0 0 164 111" width="164px" zoomAndPan="magnify"><defs/><g><!--class it.unimi.di.prog2.s06.ArrayUtilsClient--><g class="entity" data-entity="it.unimi.di.prog2.s06.ArrayUtilsClient" data-source-line="13" data-uid="ent0002" id="entity_it.unimi.di.prog2.s06.ArrayUtilsClient"><a href="ArrayUtilsClient.html" target="_top" title="ArrayUtilsClient.html" xlink:actuate="onRequest" xlink:href="ArrayUtilsClient.html" xlink:show="new" xlink:title="ArrayUtilsClient.html" xlink:type="simple"><rect fill="#F1F1F1" height="69.7558" rx="2.5" ry="2.5" style="stroke:#181818;stroke-width:0.5;" width="151.4115" x="6" y="12"/><ellipse cx="28.6572" cy="33.344" fill="#ADD1B2" rx="11" ry="11" style="stroke:#181818;stroke-width:1;"/><path d="M31.6259,38.9846 Q31.0478,39.2815 30.4072,39.4221 Q29.7665,39.5783 29.0634,39.5783 Q26.5634,39.5783 25.2353,37.9377 Q23.9228,36.2815 23.9228,33.1565 Q23.9228,30.0315 25.2353,28.3752 Q26.5634,26.719 29.0634,26.719 Q29.7665,26.719 30.4072,26.8752 Q31.0634,27.0315 31.6259,27.3283 L31.6259,30.0471 Q31.0009,29.469 30.4072,29.2033 Q29.8134,28.9221 29.1884,28.9221 Q27.8447,28.9221 27.1572,30.0002 Q26.4697,31.0627 26.4697,33.1565 Q26.4697,35.2502 27.1572,36.3283 Q27.8447,37.3908 29.1884,37.3908 Q29.8134,37.3908 30.4072,37.1252 Q31.0009,36.844 31.6259,36.2658 L31.6259,38.9846 Z " fill="#000000"/><text fill="#000000" font-family="sans-serif" font-size="14" lengthAdjust="spacing" textLength="102.3956" x="44.3588" y="31.9659">ArrayUtilsClient</text><text fill="#000000" font-family="sans-serif" font-size="10" lengthAdjust="spacing" textLength="96.9399" x="47.0866" y="46.7579">it.unimi.di.prog2.s06</text><line style="stroke:#181818;stroke-width:0.5;" x1="7" x2="156.4115" y1="54.6879" y2="54.6879"/><ellipse cx="17" cy="69.7219" fill="#84BE84" rx="3" ry="3" style="stroke:#038048;stroke-width:1;"/><text fill="#000000" font-family="sans-serif" font-size="14" lengthAdjust="spacing" text-decoration="underline" textLength="125.4115" x="26" y="73.6538">main(String[]): void</text></a></g><g class="footer" data-source-line="23"><text fill="#888888" font-family="sans-serif" font-size="10" lengthAdjust="spacing" textLength="2.6" x="76.7" y="86.69">&#160;</text><a href="https://github.com/talsma-ict/umldoclet" target="_top" title="https://github.com/talsma-ict/umldoclet" xlink:actuate="onRequest" xlink:href="https://github.com/talsma-ict/umldoclet" xlink:show="new" xlink:title="https://github.com/talsma-ict/umldoclet" xlink:type="simple"><text fill="#888888" font-family="sans-serif" font-size="10" lengthAdjust="spacing" textLength="76.7199" x="39.64" y="100.31">UMLDoclet 2.2.3</text></a></g><!--SRC=[RL9DRzf04BtdLqpJGuaIbhLBI40H4g9LFqIbAi39yM6n1tkLzQwxEwPo8_vxrpOb56KlbkVZlJSp3m3W0ynDMLkPvGHaW7BfOFrZ0KAdaA56AmXJa8N8qC46bT6PwmeHH4MviM2sxLzYh4LN6frAdS5tiHFWJ6KJTEpY0bggrJ_qtyATe6_g9lZ990e9UlEh4qaX3qRza8Uti1BA5GA-pLViWFRQ4xAGVGIFhMI2sdd8IgTeMrcpKYJ-i-WoDx13wwJHleSVS9fH4wD9IEsW59PSCz9F9JGrMWFMyBCxwCsMY_-ryN6hxGPcLeigXKVpgpgE-wwq8lEAbQXDHU0A9A55btDUj1Q5NvT8S8cUL93Vf3OQstmkKmGiIgfXAr6bxZpgmNBZmsqyKS8vk7nmyWzEWk5qPgseroILcok9cfxq8SMdabYbPI5PAbbfJHOonqUNuC_nPeQTGq4KdOTOJeMAOtXfjJJlnP4WcUpXkl0xxIt9UaT4yTK4TaQcRTc-K_xWg5OuFNPkZI5_jrUevdsjIxGBgP_dHlablRz_ExjkJgwaHk-ov5cZNma_Lkuxki49tu7hIKTHJbIwoM2GISgh3KjCCQ3MRdsPqA0gLDhvxCnnSNnmq9UZbHixz0FUv-DLm2T3FWd7ZD-EWllHtJ2uvk64y-XpPKs9WqTJOFmN]--></g></svg>